<svg width="69" height="24" viewBox="0 0 69 24" fill="none" xmlns="http://www.w3.org/2000/svg">
  <g clip-path="url(#clip0)">
    <path d="M37.047 21.405C37.992 21.405 38.964 21.216 39.315 21.108V17.841C39.018 17.922 38.64 18.003 38.235 18.003C36.966 18.003 36.372 17.409 36.372 16.221V10.929H39.315V7.797H36.372V2.856L32.727 4.206V7.797H30.351V10.929H32.592V17.112C32.592 20.19 34.644 21.405 37.047 21.405Z" fill="white"/>
    <path d="M43.5797 5.178C44.9297 5.178 45.9557 4.233 45.9557 2.856C45.9557 1.452 44.9297 0.533997 43.5797 0.533997C42.2297 0.533997 41.2037 1.452 41.2037 2.856C41.2037 4.233 42.2297 5.178 43.5797 5.178ZM41.7167 21H45.4967V7.797H41.7167V21Z" fill="white"/>
    <path d="M48.6532 21H52.4332V12.198C53.0542 11.361 53.8912 10.821 54.9172 10.821C56.1862 10.821 57.1312 11.712 57.1312 13.143V21H60.9112V12.198C60.9112 9.066 58.5622 7.365 56.0782 7.365C54.4042 7.365 53.2162 8.013 52.3792 8.85V7.797H48.6532V21Z" fill="white"/>
    <path d="M66.0265 21.135C67.4305 21.135 68.4564 20.082 68.4564 18.759C68.4564 17.436 67.4305 16.383 66.0265 16.383C64.6495 16.383 63.6234 17.436 63.6234 18.759C63.6234 20.082 64.6495 21.135 66.0265 21.135Z" fill="white"/>
    <path fill-rule="evenodd" clip-rule="evenodd" d="M-5.23887e-07 12.0149C-8.13779e-07 5.3829 5.35316 1.53179e-06 11.9851 1.2419e-06C18.6171 9.52008e-07 24 5.3829 24 12.0149C24 18.6468 18.6171 24 11.9851 24C5.35316 24 -2.33994e-07 18.6468 -5.23887e-07 12.0149ZM19.5688 11.9554L14.1264 11.9554L14.1264 17.3978L9.87361 17.3978L9.87361 11.9554L4.43123 11.9554L4.43123 7.7026C9.57621 7.7026 14.4833 7.7026 19.5688 7.7026L19.5688 11.9554Z" fill="#F89572"/>
  </g>
</svg>
